<?xml version="1.0" encoding="UTF-8" standalone="no"?>
<!DOCTYPE svg PUBLIC "-//W3C//DTD SVG 1.1//EN"
 "http://www.w3.org/Graphics/SVG/1.1/DTD/svg11.dtd">
<!-- Generated by graphviz version 5.0.0 (20220707.1540)
 -->
<!-- Title: dependencies Pages: 1 -->
<svg width="592pt" height="174pt"
 viewBox="0.00 0.00 592.00 173.80" xmlns="http://www.w3.org/2000/svg" xmlns:xlink="http://www.w3.org/1999/xlink">
<g id="graph0" class="graph" transform="scale(1 1) rotate(0) translate(4 169.8)">
<title>dependencies</title>
<polygon fill="white" stroke="transparent" points="-4,4 -4,-169.8 588,-169.8 588,4 -4,4"/>
<text text-anchor="middle" x="292" y="-8.2" font-family="sans-serif" font-size="14.00">dependencies</text>
<g id="clust1" class="cluster">
<title>cluster_HomePageModule</title>
<polygon fill="none" stroke="black" stroke-dasharray="1,5" points="8,-32.8 8,-157.8 576,-157.8 576,-32.8 8,-32.8"/>
</g>
<g id="clust6" class="cluster">
<title>cluster_HomePageModule_imports</title>
<polygon fill="none" stroke="black" points="386,-40.8 386,-92.8 568,-92.8 568,-40.8 386,-40.8"/>
</g>
<g id="clust2" class="cluster">
<title>cluster_HomePageModule_declarations</title>
<polygon fill="none" stroke="black" points="16,-40.8 16,-92.8 378,-92.8 378,-40.8 16,-40.8"/>
</g>
<!-- FooterComponent -->
<g id="node1" class="node">
<title>FooterComponent</title>
<polygon fill="#ffffb3" stroke="black" points="369.88,-84.8 252.12,-84.8 252.12,-48.8 369.88,-48.8 369.88,-84.8"/>
<text text-anchor="middle" x="311" y="-62.6" font-family="Times,serif" font-size="14.00">FooterComponent</text>
</g>
<!-- HomePageModule -->
<g id="node4" class="node">
<title>HomePageModule</title>
<polygon fill="#8dd3c7" stroke="black" points="313.48,-149.8 310.48,-153.8 289.48,-153.8 286.48,-149.8 192.52,-149.8 192.52,-113.8 313.48,-113.8 313.48,-149.8"/>
<text text-anchor="middle" x="253" y="-127.6" font-family="Times,serif" font-size="14.00">HomePageModule</text>
</g>
<!-- FooterComponent&#45;&gt;HomePageModule -->
<g id="edge1" class="edge">
<title>FooterComponent&#45;&gt;HomePageModule</title>
<path fill="none" stroke="black" d="M282.77,-84.91C282.77,-84.91 282.77,-103.79 282.77,-103.79"/>
<polygon fill="black" stroke="black" points="279.27,-103.79 282.77,-113.79 286.27,-103.79 279.27,-103.79"/>
</g>
<!-- HomePage -->
<g id="node2" class="node">
<title>HomePage</title>
<polygon fill="#ffffb3" stroke="black" points="233.93,-84.8 156.07,-84.8 156.07,-48.8 233.93,-48.8 233.93,-84.8"/>
<text text-anchor="middle" x="195" y="-62.6" font-family="Times,serif" font-size="14.00">HomePage</text>
</g>
<!-- HomePage&#45;&gt;HomePageModule -->
<g id="edge2" class="edge">
<title>HomePage&#45;&gt;HomePageModule</title>
<path fill="none" stroke="black" d="M213.11,-84.91C213.11,-84.91 213.11,-103.79 213.11,-103.79"/>
<polygon fill="black" stroke="black" points="209.61,-103.79 213.11,-113.79 216.61,-103.79 209.61,-103.79"/>
</g>
<!-- MenuComponent -->
<g id="node3" class="node">
<title>MenuComponent</title>
<polygon fill="#ffffb3" stroke="black" points="137.99,-84.8 24.01,-84.8 24.01,-48.8 137.99,-48.8 137.99,-84.8"/>
<text text-anchor="middle" x="81" y="-62.6" font-family="Times,serif" font-size="14.00">MenuComponent</text>
</g>
<!-- MenuComponent&#45;&gt;HomePageModule -->
<g id="edge3" class="edge">
<title>MenuComponent&#45;&gt;HomePageModule</title>
<path fill="none" stroke="black" d="M81,-84.91C81,-104.14 81,-131.8 81,-131.8 81,-131.8 182.36,-131.8 182.36,-131.8"/>
<polygon fill="black" stroke="black" points="182.36,-135.3 192.36,-131.8 182.36,-128.3 182.36,-135.3"/>
</g>
<!-- HomePageRoutingModule -->
<g id="node5" class="node">
<title>HomePageRoutingModule</title>
<polygon fill="#8dd3c7" stroke="black" points="560.1,-84.8 557.1,-88.8 536.1,-88.8 533.1,-84.8 393.9,-84.8 393.9,-48.8 560.1,-48.8 560.1,-84.8"/>
<text text-anchor="middle" x="477" y="-62.6" font-family="Times,serif" font-size="14.00">HomePageRoutingModule</text>
</g>
<!-- HomePageRoutingModule&#45;&gt;HomePageModule -->
<g id="edge4" class="edge">
<title>HomePageRoutingModule&#45;&gt;HomePageModule</title>
<path fill="none" stroke="black" d="M477,-84.91C477,-104.14 477,-131.8 477,-131.8 477,-131.8 323.62,-131.8 323.62,-131.8"/>
<polygon fill="black" stroke="black" points="323.62,-128.3 313.62,-131.8 323.62,-135.3 323.62,-128.3"/>
</g>
</g>
</svg>
