<?xml version="1.0" encoding="UTF-8" standalone="no"?>
<!DOCTYPE svg PUBLIC "-//W3C//DTD SVG 1.1//EN"
 "http://www.w3.org/Graphics/SVG/1.1/DTD/svg11.dtd">
<!-- Generated by graphviz version 5.0.0 (20220707.1540)
 -->
<!-- Title: dependencies Pages: 1 -->
<svg width="388pt" height="174pt"
 viewBox="0.00 0.00 388.00 173.80" xmlns="http://www.w3.org/2000/svg" xmlns:xlink="http://www.w3.org/1999/xlink">
<g id="graph0" class="graph" transform="scale(1 1) rotate(0) translate(4 169.8)">
<title>dependencies</title>
<polygon fill="white" stroke="transparent" points="-4,4 -4,-169.8 384,-169.8 384,4 -4,4"/>
<text text-anchor="middle" x="190" y="-8.2" font-family="sans-serif" font-size="14.00">dependencies</text>
<g id="clust1" class="cluster">
<title>cluster_ListerCoursPageModule</title>
<polygon fill="none" stroke="black" stroke-dasharray="1,5" points="8,-32.8 8,-157.8 372,-157.8 372,-32.8 8,-32.8"/>
</g>
<g id="clust2" class="cluster">
<title>cluster_ListerCoursPageModule_declarations</title>
<polygon fill="none" stroke="black" points="238,-40.8 238,-92.8 364,-92.8 364,-40.8 238,-40.8"/>
</g>
<g id="clust4" class="cluster">
<title>cluster_ListerCoursPageModule_imports</title>
<polygon fill="none" stroke="black" points="16,-40.8 16,-92.8 230,-92.8 230,-40.8 16,-40.8"/>
</g>
<!-- ListerCoursPage -->
<g id="node1" class="node">
<title>ListerCoursPage</title>
<polygon fill="#ffffb3" stroke="black" points="355.82,-84.8 246.18,-84.8 246.18,-48.8 355.82,-48.8 355.82,-84.8"/>
<text text-anchor="middle" x="301" y="-62.6" font-family="Times,serif" font-size="14.00">ListerCoursPage</text>
</g>
<!-- ListerCoursPageModule -->
<g id="node2" class="node">
<title>ListerCoursPageModule</title>
<polygon fill="#8dd3c7" stroke="black" points="281.37,-149.8 278.37,-153.8 257.37,-153.8 254.37,-149.8 128.63,-149.8 128.63,-113.8 281.37,-113.8 281.37,-149.8"/>
<text text-anchor="middle" x="205" y="-127.6" font-family="Times,serif" font-size="14.00">ListerCoursPageModule</text>
</g>
<!-- ListerCoursPage&#45;&gt;ListerCoursPageModule -->
<g id="edge1" class="edge">
<title>ListerCoursPage&#45;&gt;ListerCoursPageModule</title>
<path fill="none" stroke="black" d="M263.89,-84.91C263.89,-84.91 263.89,-103.79 263.89,-103.79"/>
<polygon fill="black" stroke="black" points="260.39,-103.79 263.89,-113.79 267.39,-103.79 260.39,-103.79"/>
</g>
<!-- ListerCoursPageRoutingModule -->
<g id="node3" class="node">
<title>ListerCoursPageRoutingModule</title>
<polygon fill="#8dd3c7" stroke="black" points="221.99,-84.8 218.99,-88.8 197.99,-88.8 194.99,-84.8 24.01,-84.8 24.01,-48.8 221.99,-48.8 221.99,-84.8"/>
<text text-anchor="middle" x="123" y="-62.6" font-family="Times,serif" font-size="14.00">ListerCoursPageRoutingModule</text>
</g>
<!-- ListerCoursPageRoutingModule&#45;&gt;ListerCoursPageModule -->
<g id="edge2" class="edge">
<title>ListerCoursPageRoutingModule&#45;&gt;ListerCoursPageModule</title>
<path fill="none" stroke="black" d="M175.28,-84.91C175.28,-84.91 175.28,-103.79 175.28,-103.79"/>
<polygon fill="black" stroke="black" points="171.78,-103.79 175.28,-113.79 178.78,-103.79 171.78,-103.79"/>
</g>
</g>
</svg>
