<?xml version="1.0" encoding="UTF-8" standalone="no"?>
<!DOCTYPE svg PUBLIC "-//W3C//DTD SVG 1.1//EN"
 "http://www.w3.org/Graphics/SVG/1.1/DTD/svg11.dtd">
<!-- Generated by graphviz version 5.0.0 (20220707.1540)
 -->
<!-- Title: dependencies Pages: 1 -->
<svg width="500pt" height="174pt"
 viewBox="0.00 0.00 500.00 173.80" xmlns="http://www.w3.org/2000/svg" xmlns:xlink="http://www.w3.org/1999/xlink">
<g id="graph0" class="graph" transform="scale(1 1) rotate(0) translate(4 169.8)">
<title>dependencies</title>
<polygon fill="white" stroke="transparent" points="-4,4 -4,-169.8 496,-169.8 496,4 -4,4"/>
<text text-anchor="middle" x="246" y="-8.2" font-family="sans-serif" font-size="14.00">dependencies</text>
<g id="clust1" class="cluster">
<title>cluster_RechercherProfesseurPageModule</title>
<polygon fill="none" stroke="black" stroke-dasharray="1,5" points="8,-32.8 8,-157.8 484,-157.8 484,-32.8 8,-32.8"/>
</g>
<g id="clust4" class="cluster">
<title>cluster_RechercherProfesseurPageModule_imports</title>
<polygon fill="none" stroke="black" points="206,-40.8 206,-92.8 476,-92.8 476,-40.8 206,-40.8"/>
</g>
<g id="clust2" class="cluster">
<title>cluster_RechercherProfesseurPageModule_declarations</title>
<polygon fill="none" stroke="black" points="16,-40.8 16,-92.8 198,-92.8 198,-40.8 16,-40.8"/>
</g>
<!-- RechercherProfesseurPage -->
<g id="node1" class="node">
<title>RechercherProfesseurPage</title>
<polygon fill="#ffffb3" stroke="black" points="190.04,-84.8 23.96,-84.8 23.96,-48.8 190.04,-48.8 190.04,-84.8"/>
<text text-anchor="middle" x="107" y="-62.6" font-family="Times,serif" font-size="14.00">RechercherProfesseurPage</text>
</g>
<!-- RechercherProfesseurPageModule -->
<g id="node2" class="node">
<title>RechercherProfesseurPageModule</title>
<polygon fill="#8dd3c7" stroke="black" points="335.59,-149.8 332.59,-153.8 311.59,-153.8 308.59,-149.8 126.41,-149.8 126.41,-113.8 335.59,-113.8 335.59,-149.8"/>
<text text-anchor="middle" x="231" y="-127.6" font-family="Times,serif" font-size="14.00">RechercherProfesseurPageModule</text>
</g>
<!-- RechercherProfesseurPage&#45;&gt;RechercherProfesseurPageModule -->
<g id="edge1" class="edge">
<title>RechercherProfesseurPage&#45;&gt;RechercherProfesseurPageModule</title>
<path fill="none" stroke="black" d="M158.11,-84.91C158.11,-84.91 158.11,-103.79 158.11,-103.79"/>
<polygon fill="black" stroke="black" points="154.61,-103.79 158.11,-113.79 161.61,-103.79 154.61,-103.79"/>
</g>
<!-- RechercherProfesseurPageRoutingModule -->
<g id="node3" class="node">
<title>RechercherProfesseurPageRoutingModule</title>
<polygon fill="#8dd3c7" stroke="black" points="468.21,-84.8 465.21,-88.8 444.21,-88.8 441.21,-84.8 213.79,-84.8 213.79,-48.8 468.21,-48.8 468.21,-84.8"/>
<text text-anchor="middle" x="341" y="-62.6" font-family="Times,serif" font-size="14.00">RechercherProfesseurPageRoutingModule</text>
</g>
<!-- RechercherProfesseurPageRoutingModule&#45;&gt;RechercherProfesseurPageModule -->
<g id="edge2" class="edge">
<title>RechercherProfesseurPageRoutingModule&#45;&gt;RechercherProfesseurPageModule</title>
<path fill="none" stroke="black" d="M274.72,-84.91C274.72,-84.91 274.72,-103.79 274.72,-103.79"/>
<polygon fill="black" stroke="black" points="271.22,-103.79 274.72,-113.79 278.22,-103.79 271.22,-103.79"/>
</g>
</g>
</svg>
