<?xml version="1.0" encoding="UTF-8" standalone="no"?>
<!DOCTYPE svg PUBLIC "-//W3C//DTD SVG 1.1//EN"
 "http://www.w3.org/Graphics/SVG/1.1/DTD/svg11.dtd">
<!-- Generated by graphviz version 5.0.0 (20220707.1540)
 -->
<!-- Title: dependencies Pages: 1 -->
<svg width="460pt" height="174pt"
 viewBox="0.00 0.00 460.00 173.80" xmlns="http://www.w3.org/2000/svg" xmlns:xlink="http://www.w3.org/1999/xlink">
<g id="graph0" class="graph" transform="scale(1 1) rotate(0) translate(4 169.8)">
<title>dependencies</title>
<polygon fill="white" stroke="transparent" points="-4,4 -4,-169.8 456,-169.8 456,4 -4,4"/>
<text text-anchor="middle" x="226" y="-8.2" font-family="sans-serif" font-size="14.00">dependencies</text>
<g id="clust1" class="cluster">
<title>cluster_AjouterProfesseurPageModule</title>
<polygon fill="none" stroke="black" stroke-dasharray="1,5" points="8,-32.8 8,-157.8 444,-157.8 444,-32.8 8,-32.8"/>
</g>
<g id="clust4" class="cluster">
<title>cluster_AjouterProfesseurPageModule_imports</title>
<polygon fill="none" stroke="black" points="186,-40.8 186,-92.8 436,-92.8 436,-40.8 186,-40.8"/>
</g>
<g id="clust2" class="cluster">
<title>cluster_AjouterProfesseurPageModule_declarations</title>
<polygon fill="none" stroke="black" points="16,-40.8 16,-92.8 178,-92.8 178,-40.8 16,-40.8"/>
</g>
<!-- AjouterProfesseurPage -->
<g id="node1" class="node">
<title>AjouterProfesseurPage</title>
<polygon fill="#ffffb3" stroke="black" points="169.58,-84.8 24.42,-84.8 24.42,-48.8 169.58,-48.8 169.58,-84.8"/>
<text text-anchor="middle" x="97" y="-62.6" font-family="Times,serif" font-size="14.00">AjouterProfesseurPage</text>
</g>
<!-- AjouterProfesseurPageModule -->
<g id="node2" class="node">
<title>AjouterProfesseurPageModule</title>
<polygon fill="#8dd3c7" stroke="black" points="304.13,-149.8 301.13,-153.8 280.13,-153.8 277.13,-149.8 115.87,-149.8 115.87,-113.8 304.13,-113.8 304.13,-149.8"/>
<text text-anchor="middle" x="210" y="-127.6" font-family="Times,serif" font-size="14.00">AjouterProfesseurPageModule</text>
</g>
<!-- AjouterProfesseurPage&#45;&gt;AjouterProfesseurPageModule -->
<g id="edge1" class="edge">
<title>AjouterProfesseurPage&#45;&gt;AjouterProfesseurPageModule</title>
<path fill="none" stroke="black" d="M142.61,-84.91C142.61,-84.91 142.61,-103.79 142.61,-103.79"/>
<polygon fill="black" stroke="black" points="139.11,-103.79 142.61,-113.79 146.11,-103.79 139.11,-103.79"/>
</g>
<!-- AjouterProfesseurPageRoutingModule -->
<g id="node3" class="node">
<title>AjouterProfesseurPageRoutingModule</title>
<polygon fill="#8dd3c7" stroke="black" points="427.75,-84.8 424.75,-88.8 403.75,-88.8 400.75,-84.8 194.25,-84.8 194.25,-48.8 427.75,-48.8 427.75,-84.8"/>
<text text-anchor="middle" x="311" y="-62.6" font-family="Times,serif" font-size="14.00">AjouterProfesseurPageRoutingModule</text>
</g>
<!-- AjouterProfesseurPageRoutingModule&#45;&gt;AjouterProfesseurPageModule -->
<g id="edge2" class="edge">
<title>AjouterProfesseurPageRoutingModule&#45;&gt;AjouterProfesseurPageModule</title>
<path fill="none" stroke="black" d="M249.22,-84.91C249.22,-84.91 249.22,-103.79 249.22,-103.79"/>
<polygon fill="black" stroke="black" points="245.72,-103.79 249.22,-113.79 252.72,-103.79 245.72,-103.79"/>
</g>
</g>
</svg>
