<?xml version="1.0" encoding="UTF-8" standalone="no"?>
<!DOCTYPE svg PUBLIC "-//W3C//DTD SVG 1.1//EN"
 "http://www.w3.org/Graphics/SVG/1.1/DTD/svg11.dtd">
<!-- Generated by graphviz version 5.0.0 (20220707.1540)
 -->
<!-- Title: dependencies Pages: 1 -->
<svg width="3744pt" height="247pt"
 viewBox="0.00 0.00 3744.00 246.80" xmlns="http://www.w3.org/2000/svg" xmlns:xlink="http://www.w3.org/1999/xlink">
<g id="graph0" class="graph" transform="scale(1 1) rotate(0) translate(4 242.8)">
<title>dependencies</title>
<polygon fill="white" stroke="transparent" points="-4,4 -4,-242.8 3740,-242.8 3740,4 -4,4"/>
<text text-anchor="middle" x="1868" y="-8.2" font-family="sans-serif" font-size="14.00">dependencies</text>
<g id="clust1" class="cluster">
<title>cluster_AjouterCoursPageModule</title>
<polygon fill="none" stroke="black" stroke-dasharray="1,5" points="8,-32.8 8,-157.8 392,-157.8 392,-32.8 8,-32.8"/>
</g>
<g id="clust2" class="cluster">
<title>cluster_AjouterCoursPageModule_declarations</title>
<polygon fill="none" stroke="black" points="248,-40.8 248,-92.8 384,-92.8 384,-40.8 248,-40.8"/>
</g>
<g id="clust4" class="cluster">
<title>cluster_AjouterCoursPageModule_imports</title>
<polygon fill="none" stroke="black" points="16,-40.8 16,-92.8 240,-92.8 240,-40.8 16,-40.8"/>
</g>
<g id="clust14" class="cluster">
<title>cluster_AjouterProfesseurPageModule</title>
<polygon fill="none" stroke="black" stroke-dasharray="1,5" points="400,-32.8 400,-157.8 836,-157.8 836,-32.8 400,-32.8"/>
</g>
<g id="clust15" class="cluster">
<title>cluster_AjouterProfesseurPageModule_declarations</title>
<polygon fill="none" stroke="black" points="666,-40.8 666,-92.8 828,-92.8 828,-40.8 666,-40.8"/>
</g>
<g id="clust17" class="cluster">
<title>cluster_AjouterProfesseurPageModule_imports</title>
<polygon fill="none" stroke="black" points="408,-40.8 408,-92.8 658,-92.8 658,-40.8 408,-40.8"/>
</g>
<g id="clust27" class="cluster">
<title>cluster_AppModule</title>
<polygon fill="none" stroke="black" stroke-dasharray="1,5" points="844,-32.8 844,-230.8 1134,-230.8 1134,-32.8 844,-32.8"/>
</g>
<g id="clust28" class="cluster">
<title>cluster_AppModule_declarations</title>
<polygon fill="none" stroke="black" points="1004,-40.8 1004,-92.8 1126,-92.8 1126,-40.8 1004,-40.8"/>
</g>
<g id="clust30" class="cluster">
<title>cluster_AppModule_imports</title>
<polygon fill="none" stroke="black" points="852,-40.8 852,-92.8 996,-92.8 996,-40.8 852,-40.8"/>
</g>
<g id="clust32" class="cluster">
<title>cluster_AppModule_bootstrap</title>
<polygon fill="none" stroke="black" points="932,-170.8 932,-222.8 1056,-222.8 1056,-170.8 932,-170.8"/>
</g>
<g id="clust40" class="cluster">
<title>cluster_HomePageModule</title>
<polygon fill="none" stroke="black" stroke-dasharray="1,5" points="1142,-32.8 1142,-157.8 1710,-157.8 1710,-32.8 1142,-32.8"/>
</g>
<g id="clust41" class="cluster">
<title>cluster_HomePageModule_declarations</title>
<polygon fill="none" stroke="black" points="1340,-40.8 1340,-92.8 1702,-92.8 1702,-40.8 1340,-40.8"/>
</g>
<g id="clust45" class="cluster">
<title>cluster_HomePageModule_imports</title>
<polygon fill="none" stroke="black" points="1150,-40.8 1150,-92.8 1332,-92.8 1332,-40.8 1150,-40.8"/>
</g>
<g id="clust55" class="cluster">
<title>cluster_ListerCoursPageModule</title>
<polygon fill="none" stroke="black" stroke-dasharray="1,5" points="1718,-32.8 1718,-157.8 2082,-157.8 2082,-32.8 1718,-32.8"/>
</g>
<g id="clust56" class="cluster">
<title>cluster_ListerCoursPageModule_declarations</title>
<polygon fill="none" stroke="black" points="1948,-40.8 1948,-92.8 2074,-92.8 2074,-40.8 1948,-40.8"/>
</g>
<g id="clust58" class="cluster">
<title>cluster_ListerCoursPageModule_imports</title>
<polygon fill="none" stroke="black" points="1726,-40.8 1726,-92.8 1940,-92.8 1940,-40.8 1726,-40.8"/>
</g>
<g id="clust68" class="cluster">
<title>cluster_ListerProfesseurPageModule</title>
<polygon fill="none" stroke="black" stroke-dasharray="1,5" points="2090,-32.8 2090,-157.8 2504,-157.8 2504,-32.8 2090,-32.8"/>
</g>
<g id="clust69" class="cluster">
<title>cluster_ListerProfesseurPageModule_declarations</title>
<polygon fill="none" stroke="black" points="2346,-40.8 2346,-92.8 2496,-92.8 2496,-40.8 2346,-40.8"/>
</g>
<g id="clust71" class="cluster">
<title>cluster_ListerProfesseurPageModule_imports</title>
<polygon fill="none" stroke="black" points="2098,-40.8 2098,-92.8 2338,-92.8 2338,-40.8 2098,-40.8"/>
</g>
<g id="clust81" class="cluster">
<title>cluster_LoginPageModule</title>
<polygon fill="none" stroke="black" stroke-dasharray="1,5" points="2512,-32.8 2512,-157.8 2810,-157.8 2810,-32.8 2512,-32.8"/>
</g>
<g id="clust82" class="cluster">
<title>cluster_LoginPageModule_declarations</title>
<polygon fill="none" stroke="black" points="2710,-40.8 2710,-92.8 2802,-92.8 2802,-40.8 2710,-40.8"/>
</g>
<g id="clust84" class="cluster">
<title>cluster_LoginPageModule_imports</title>
<polygon fill="none" stroke="black" points="2520,-40.8 2520,-92.8 2702,-92.8 2702,-40.8 2520,-40.8"/>
</g>
<g id="clust94" class="cluster">
<title>cluster_RechercherCoursPageModule</title>
<polygon fill="none" stroke="black" stroke-dasharray="1,5" points="2818,-32.8 2818,-157.8 3244,-157.8 3244,-32.8 2818,-32.8"/>
</g>
<g id="clust95" class="cluster">
<title>cluster_RechercherCoursPageModule_declarations</title>
<polygon fill="none" stroke="black" points="3080,-40.8 3080,-92.8 3236,-92.8 3236,-40.8 3080,-40.8"/>
</g>
<g id="clust97" class="cluster">
<title>cluster_RechercherCoursPageModule_imports</title>
<polygon fill="none" stroke="black" points="2826,-40.8 2826,-92.8 3072,-92.8 3072,-40.8 2826,-40.8"/>
</g>
<g id="clust107" class="cluster">
<title>cluster_RechercherProfesseurPageModule</title>
<polygon fill="none" stroke="black" stroke-dasharray="1,5" points="3252,-32.8 3252,-157.8 3728,-157.8 3728,-32.8 3252,-32.8"/>
</g>
<g id="clust108" class="cluster">
<title>cluster_RechercherProfesseurPageModule_declarations</title>
<polygon fill="none" stroke="black" points="3538,-40.8 3538,-92.8 3720,-92.8 3720,-40.8 3538,-40.8"/>
</g>
<g id="clust110" class="cluster">
<title>cluster_RechercherProfesseurPageModule_imports</title>
<polygon fill="none" stroke="black" points="3260,-40.8 3260,-92.8 3530,-92.8 3530,-40.8 3260,-40.8"/>
</g>
<!-- AjouterCoursPage -->
<g id="node1" class="node">
<title>AjouterCoursPage</title>
<polygon fill="#ffffb3" stroke="black" points="375.93,-84.8 256.07,-84.8 256.07,-48.8 375.93,-48.8 375.93,-84.8"/>
<text text-anchor="middle" x="316" y="-62.6" font-family="Times,serif" font-size="14.00">AjouterCoursPage</text>
</g>
<!-- AjouterCoursPageModule -->
<g id="node2" class="node">
<title>AjouterCoursPageModule</title>
<polygon fill="#8dd3c7" stroke="black" points="296.48,-149.8 293.48,-153.8 272.48,-153.8 269.48,-149.8 133.52,-149.8 133.52,-113.8 296.48,-113.8 296.48,-149.8"/>
<text text-anchor="middle" x="215" y="-127.6" font-family="Times,serif" font-size="14.00">AjouterCoursPageModule</text>
</g>
<!-- AjouterCoursPage&#45;&gt;AjouterCoursPageModule -->
<g id="edge1" class="edge">
<title>AjouterCoursPage&#45;&gt;AjouterCoursPageModule</title>
<path fill="none" stroke="black" d="M276.39,-84.91C276.39,-84.91 276.39,-103.79 276.39,-103.79"/>
<polygon fill="black" stroke="black" points="272.89,-103.79 276.39,-113.79 279.89,-103.79 272.89,-103.79"/>
</g>
<!-- AjouterCoursPageRoutingModule -->
<g id="node3" class="node">
<title>AjouterCoursPageRoutingModule</title>
<polygon fill="#8dd3c7" stroke="black" points="232.1,-84.8 229.1,-88.8 208.1,-88.8 205.1,-84.8 23.9,-84.8 23.9,-48.8 232.1,-48.8 232.1,-84.8"/>
<text text-anchor="middle" x="128" y="-62.6" font-family="Times,serif" font-size="14.00">AjouterCoursPageRoutingModule</text>
</g>
<!-- AjouterCoursPageRoutingModule&#45;&gt;AjouterCoursPageModule -->
<g id="edge2" class="edge">
<title>AjouterCoursPageRoutingModule&#45;&gt;AjouterCoursPageModule</title>
<path fill="none" stroke="black" d="M182.78,-84.91C182.78,-84.91 182.78,-103.79 182.78,-103.79"/>
<polygon fill="black" stroke="black" points="179.28,-103.79 182.78,-113.79 186.28,-103.79 179.28,-103.79"/>
</g>
<!-- AjouterProfesseurPage -->
<g id="node4" class="node">
<title>AjouterProfesseurPage</title>
<polygon fill="#ffffb3" stroke="black" points="819.58,-84.8 674.42,-84.8 674.42,-48.8 819.58,-48.8 819.58,-84.8"/>
<text text-anchor="middle" x="747" y="-62.6" font-family="Times,serif" font-size="14.00">AjouterProfesseurPage</text>
</g>
<!-- AjouterProfesseurPageModule -->
<g id="node5" class="node">
<title>AjouterProfesseurPageModule</title>
<polygon fill="#8dd3c7" stroke="black" points="727.13,-149.8 724.13,-153.8 703.13,-153.8 700.13,-149.8 538.87,-149.8 538.87,-113.8 727.13,-113.8 727.13,-149.8"/>
<text text-anchor="middle" x="633" y="-127.6" font-family="Times,serif" font-size="14.00">AjouterProfesseurPageModule</text>
</g>
<!-- AjouterProfesseurPage&#45;&gt;AjouterProfesseurPageModule -->
<g id="edge3" class="edge">
<title>AjouterProfesseurPage&#45;&gt;AjouterProfesseurPageModule</title>
<path fill="none" stroke="black" d="M700.89,-84.91C700.89,-84.91 700.89,-103.79 700.89,-103.79"/>
<polygon fill="black" stroke="black" points="697.39,-103.79 700.89,-113.79 704.39,-103.79 697.39,-103.79"/>
</g>
<!-- AjouterProfesseurPageRoutingModule -->
<g id="node6" class="node">
<title>AjouterProfesseurPageRoutingModule</title>
<polygon fill="#8dd3c7" stroke="black" points="649.75,-84.8 646.75,-88.8 625.75,-88.8 622.75,-84.8 416.25,-84.8 416.25,-48.8 649.75,-48.8 649.75,-84.8"/>
<text text-anchor="middle" x="533" y="-62.6" font-family="Times,serif" font-size="14.00">AjouterProfesseurPageRoutingModule</text>
</g>
<!-- AjouterProfesseurPageRoutingModule&#45;&gt;AjouterProfesseurPageModule -->
<g id="edge4" class="edge">
<title>AjouterProfesseurPageRoutingModule&#45;&gt;AjouterProfesseurPageModule</title>
<path fill="none" stroke="black" d="M594.28,-84.91C594.28,-84.91 594.28,-103.79 594.28,-103.79"/>
<polygon fill="black" stroke="black" points="590.78,-103.79 594.28,-113.79 597.78,-103.79 590.78,-103.79"/>
</g>
<!-- AppComponent -->
<g id="node7" class="node">
<title>AppComponent</title>
<polygon fill="#ffffb3" stroke="black" points="1117.94,-84.8 1012.06,-84.8 1012.06,-48.8 1117.94,-48.8 1117.94,-84.8"/>
<text text-anchor="middle" x="1065" y="-62.6" font-family="Times,serif" font-size="14.00">AppComponent</text>
</g>
<!-- AppModule -->
<g id="node8" class="node">
<title>AppModule</title>
<polygon fill="#8dd3c7" stroke="black" points="1035.66,-149.8 1032.66,-153.8 1011.66,-153.8 1008.66,-149.8 952.34,-149.8 952.34,-113.8 1035.66,-113.8 1035.66,-149.8"/>
<text text-anchor="middle" x="994" y="-127.6" font-family="Times,serif" font-size="14.00">AppModule</text>
</g>
<!-- AppComponent&#45;&gt;AppModule -->
<g id="edge5" class="edge">
<title>AppComponent&#45;&gt;AppModule</title>
<path fill="none" stroke="black" d="M1024.06,-84.91C1024.06,-84.91 1024.06,-103.79 1024.06,-103.79"/>
<polygon fill="black" stroke="black" points="1020.56,-103.79 1024.06,-113.79 1027.56,-103.79 1020.56,-103.79"/>
</g>
<!-- AppComponent  -->
<g id="node10" class="node">
<title>AppComponent </title>
<polygon fill="#80b1d3" stroke="black" points="1048.44,-214.8 939.56,-214.8 939.56,-178.8 1048.44,-178.8 1048.44,-214.8"/>
<text text-anchor="middle" x="994" y="-192.6" font-family="Times,serif" font-size="14.00">AppComponent </text>
</g>
<!-- AppModule&#45;&gt;AppComponent  -->
<g id="edge7" class="edge">
<title>AppModule&#45;&gt;AppComponent </title>
<path fill="none" stroke="black" stroke-dasharray="1,5" d="M994,-149.91C994,-149.91 994,-168.79 994,-168.79"/>
<polygon fill="black" stroke="black" points="990.5,-168.79 994,-178.79 997.5,-168.79 990.5,-168.79"/>
</g>
<!-- AppRoutingModule -->
<g id="node9" class="node">
<title>AppRoutingModule</title>
<polygon fill="#8dd3c7" stroke="black" points="988.28,-84.8 985.28,-88.8 964.28,-88.8 961.28,-84.8 859.72,-84.8 859.72,-48.8 988.28,-48.8 988.28,-84.8"/>
<text text-anchor="middle" x="924" y="-62.6" font-family="Times,serif" font-size="14.00">AppRoutingModule</text>
</g>
<!-- AppRoutingModule&#45;&gt;AppModule -->
<g id="edge6" class="edge">
<title>AppRoutingModule&#45;&gt;AppModule</title>
<path fill="none" stroke="black" d="M970.28,-84.91C970.28,-84.91 970.28,-103.79 970.28,-103.79"/>
<polygon fill="black" stroke="black" points="966.78,-103.79 970.28,-113.79 973.78,-103.79 966.78,-103.79"/>
</g>
<!-- FooterComponent -->
<g id="node11" class="node">
<title>FooterComponent</title>
<polygon fill="#ffffb3" stroke="black" points="1693.88,-84.8 1576.12,-84.8 1576.12,-48.8 1693.88,-48.8 1693.88,-84.8"/>
<text text-anchor="middle" x="1635" y="-62.6" font-family="Times,serif" font-size="14.00">FooterComponent</text>
</g>
<!-- HomePageModule -->
<g id="node14" class="node">
<title>HomePageModule</title>
<polygon fill="#8dd3c7" stroke="black" points="1522.48,-149.8 1519.48,-153.8 1498.48,-153.8 1495.48,-149.8 1401.52,-149.8 1401.52,-113.8 1522.48,-113.8 1522.48,-149.8"/>
<text text-anchor="middle" x="1462" y="-127.6" font-family="Times,serif" font-size="14.00">HomePageModule</text>
</g>
<!-- FooterComponent&#45;&gt;HomePageModule -->
<g id="edge8" class="edge">
<title>FooterComponent&#45;&gt;HomePageModule</title>
<path fill="none" stroke="black" d="M1635,-84.91C1635,-104.14 1635,-131.8 1635,-131.8 1635,-131.8 1532.51,-131.8 1532.51,-131.8"/>
<polygon fill="black" stroke="black" points="1532.51,-128.3 1522.51,-131.8 1532.51,-135.3 1532.51,-128.3"/>
</g>
<!-- HomePage -->
<g id="node12" class="node">
<title>HomePage</title>
<polygon fill="#ffffb3" stroke="black" points="1557.93,-84.8 1480.07,-84.8 1480.07,-48.8 1557.93,-48.8 1557.93,-84.8"/>
<text text-anchor="middle" x="1519" y="-62.6" font-family="Times,serif" font-size="14.00">HomePage</text>
</g>
<!-- HomePage&#45;&gt;HomePageModule -->
<g id="edge9" class="edge">
<title>HomePage&#45;&gt;HomePageModule</title>
<path fill="none" stroke="black" d="M1501.39,-84.91C1501.39,-84.91 1501.39,-103.79 1501.39,-103.79"/>
<polygon fill="black" stroke="black" points="1497.89,-103.79 1501.39,-113.79 1504.89,-103.79 1497.89,-103.79"/>
</g>
<!-- MenuComponent -->
<g id="node13" class="node">
<title>MenuComponent</title>
<polygon fill="#ffffb3" stroke="black" points="1461.99,-84.8 1348.01,-84.8 1348.01,-48.8 1461.99,-48.8 1461.99,-84.8"/>
<text text-anchor="middle" x="1405" y="-62.6" font-family="Times,serif" font-size="14.00">MenuComponent</text>
</g>
<!-- MenuComponent&#45;&gt;HomePageModule -->
<g id="edge10" class="edge">
<title>MenuComponent&#45;&gt;HomePageModule</title>
<path fill="none" stroke="black" d="M1431.75,-84.91C1431.75,-84.91 1431.75,-103.79 1431.75,-103.79"/>
<polygon fill="black" stroke="black" points="1428.25,-103.79 1431.75,-113.79 1435.25,-103.79 1428.25,-103.79"/>
</g>
<!-- HomePageRoutingModule -->
<g id="node15" class="node">
<title>HomePageRoutingModule</title>
<polygon fill="#8dd3c7" stroke="black" points="1324.1,-84.8 1321.1,-88.8 1300.1,-88.8 1297.1,-84.8 1157.9,-84.8 1157.9,-48.8 1324.1,-48.8 1324.1,-84.8"/>
<text text-anchor="middle" x="1241" y="-62.6" font-family="Times,serif" font-size="14.00">HomePageRoutingModule</text>
</g>
<!-- HomePageRoutingModule&#45;&gt;HomePageModule -->
<g id="edge11" class="edge">
<title>HomePageRoutingModule&#45;&gt;HomePageModule</title>
<path fill="none" stroke="black" d="M1241,-84.91C1241,-104.14 1241,-131.8 1241,-131.8 1241,-131.8 1391.32,-131.8 1391.32,-131.8"/>
<polygon fill="black" stroke="black" points="1391.32,-135.3 1401.32,-131.8 1391.32,-128.3 1391.32,-135.3"/>
</g>
<!-- ListerCoursPage -->
<g id="node16" class="node">
<title>ListerCoursPage</title>
<polygon fill="#ffffb3" stroke="black" points="2065.82,-84.8 1956.18,-84.8 1956.18,-48.8 2065.82,-48.8 2065.82,-84.8"/>
<text text-anchor="middle" x="2011" y="-62.6" font-family="Times,serif" font-size="14.00">ListerCoursPage</text>
</g>
<!-- ListerCoursPageModule -->
<g id="node17" class="node">
<title>ListerCoursPageModule</title>
<polygon fill="#8dd3c7" stroke="black" points="1991.37,-149.8 1988.37,-153.8 1967.37,-153.8 1964.37,-149.8 1838.63,-149.8 1838.63,-113.8 1991.37,-113.8 1991.37,-149.8"/>
<text text-anchor="middle" x="1915" y="-127.6" font-family="Times,serif" font-size="14.00">ListerCoursPageModule</text>
</g>
<!-- ListerCoursPage&#45;&gt;ListerCoursPageModule -->
<g id="edge12" class="edge">
<title>ListerCoursPage&#45;&gt;ListerCoursPageModule</title>
<path fill="none" stroke="black" d="M1973.89,-84.91C1973.89,-84.91 1973.89,-103.79 1973.89,-103.79"/>
<polygon fill="black" stroke="black" points="1970.39,-103.79 1973.89,-113.79 1977.39,-103.79 1970.39,-103.79"/>
</g>
<!-- ListerCoursPageRoutingModule -->
<g id="node18" class="node">
<title>ListerCoursPageRoutingModule</title>
<polygon fill="#8dd3c7" stroke="black" points="1931.99,-84.8 1928.99,-88.8 1907.99,-88.8 1904.99,-84.8 1734.01,-84.8 1734.01,-48.8 1931.99,-48.8 1931.99,-84.8"/>
<text text-anchor="middle" x="1833" y="-62.6" font-family="Times,serif" font-size="14.00">ListerCoursPageRoutingModule</text>
</g>
<!-- ListerCoursPageRoutingModule&#45;&gt;ListerCoursPageModule -->
<g id="edge13" class="edge">
<title>ListerCoursPageRoutingModule&#45;&gt;ListerCoursPageModule</title>
<path fill="none" stroke="black" d="M1885.28,-84.91C1885.28,-84.91 1885.28,-103.79 1885.28,-103.79"/>
<polygon fill="black" stroke="black" points="1881.78,-103.79 1885.28,-113.79 1888.78,-103.79 1881.78,-103.79"/>
</g>
<!-- ListerProfesseurPage -->
<g id="node19" class="node">
<title>ListerProfesseurPage</title>
<polygon fill="#ffffb3" stroke="black" points="2488.47,-84.8 2353.53,-84.8 2353.53,-48.8 2488.47,-48.8 2488.47,-84.8"/>
<text text-anchor="middle" x="2421" y="-62.6" font-family="Times,serif" font-size="14.00">ListerProfesseurPage</text>
</g>
<!-- ListerProfesseurPageModule -->
<g id="node20" class="node">
<title>ListerProfesseurPageModule</title>
<polygon fill="#8dd3c7" stroke="black" points="2401.02,-149.8 2398.02,-153.8 2377.02,-153.8 2374.02,-149.8 2222.98,-149.8 2222.98,-113.8 2401.02,-113.8 2401.02,-149.8"/>
<text text-anchor="middle" x="2312" y="-127.6" font-family="Times,serif" font-size="14.00">ListerProfesseurPageModule</text>
</g>
<!-- ListerProfesseurPage&#45;&gt;ListerProfesseurPageModule -->
<g id="edge14" class="edge">
<title>ListerProfesseurPage&#45;&gt;ListerProfesseurPageModule</title>
<path fill="none" stroke="black" d="M2377.39,-84.91C2377.39,-84.91 2377.39,-103.79 2377.39,-103.79"/>
<polygon fill="black" stroke="black" points="2373.89,-103.79 2377.39,-113.79 2380.89,-103.79 2373.89,-103.79"/>
</g>
<!-- ListerProfesseurPageRoutingModule -->
<g id="node21" class="node">
<title>ListerProfesseurPageRoutingModule</title>
<polygon fill="#8dd3c7" stroke="black" points="2329.64,-84.8 2326.64,-88.8 2305.64,-88.8 2302.64,-84.8 2106.36,-84.8 2106.36,-48.8 2329.64,-48.8 2329.64,-84.8"/>
<text text-anchor="middle" x="2218" y="-62.6" font-family="Times,serif" font-size="14.00">ListerProfesseurPageRoutingModule</text>
</g>
<!-- ListerProfesseurPageRoutingModule&#45;&gt;ListerProfesseurPageModule -->
<g id="edge15" class="edge">
<title>ListerProfesseurPageRoutingModule&#45;&gt;ListerProfesseurPageModule</title>
<path fill="none" stroke="black" d="M2276.28,-84.91C2276.28,-84.91 2276.28,-103.79 2276.28,-103.79"/>
<polygon fill="black" stroke="black" points="2272.78,-103.79 2276.28,-113.79 2279.78,-103.79 2272.78,-103.79"/>
</g>
<!-- LoginPage -->
<g id="node22" class="node">
<title>LoginPage</title>
<polygon fill="#ffffb3" stroke="black" points="2794.16,-84.8 2717.84,-84.8 2717.84,-48.8 2794.16,-48.8 2794.16,-84.8"/>
<text text-anchor="middle" x="2756" y="-62.6" font-family="Times,serif" font-size="14.00">LoginPage</text>
</g>
<!-- LoginPageModule -->
<g id="node23" class="node">
<title>LoginPageModule</title>
<polygon fill="#8dd3c7" stroke="black" points="2736.21,-149.8 2733.21,-153.8 2712.21,-153.8 2709.21,-149.8 2615.79,-149.8 2615.79,-113.8 2736.21,-113.8 2736.21,-149.8"/>
<text text-anchor="middle" x="2676" y="-127.6" font-family="Times,serif" font-size="14.00">LoginPageModule</text>
</g>
<!-- LoginPage&#45;&gt;LoginPageModule -->
<g id="edge16" class="edge">
<title>LoginPage&#45;&gt;LoginPageModule</title>
<path fill="none" stroke="black" d="M2726.89,-84.91C2726.89,-84.91 2726.89,-103.79 2726.89,-103.79"/>
<polygon fill="black" stroke="black" points="2723.39,-103.79 2726.89,-113.79 2730.39,-103.79 2723.39,-103.79"/>
</g>
<!-- LoginPageRoutingModule -->
<g id="node24" class="node">
<title>LoginPageRoutingModule</title>
<polygon fill="#8dd3c7" stroke="black" points="2693.82,-84.8 2690.82,-88.8 2669.82,-88.8 2666.82,-84.8 2528.18,-84.8 2528.18,-48.8 2693.82,-48.8 2693.82,-84.8"/>
<text text-anchor="middle" x="2611" y="-62.6" font-family="Times,serif" font-size="14.00">LoginPageRoutingModule</text>
</g>
<!-- LoginPageRoutingModule&#45;&gt;LoginPageModule -->
<g id="edge17" class="edge">
<title>LoginPageRoutingModule&#45;&gt;LoginPageModule</title>
<path fill="none" stroke="black" d="M2654.78,-84.91C2654.78,-84.91 2654.78,-103.79 2654.78,-103.79"/>
<polygon fill="black" stroke="black" points="2651.28,-103.79 2654.78,-113.79 2658.28,-103.79 2651.28,-103.79"/>
</g>
<!-- RechercherCoursPage -->
<g id="node25" class="node">
<title>RechercherCoursPage</title>
<polygon fill="#ffffb3" stroke="black" points="3228.39,-84.8 3087.61,-84.8 3087.61,-48.8 3228.39,-48.8 3228.39,-84.8"/>
<text text-anchor="middle" x="3158" y="-62.6" font-family="Times,serif" font-size="14.00">RechercherCoursPage</text>
</g>
<!-- RechercherCoursPageModule -->
<g id="node26" class="node">
<title>RechercherCoursPageModule</title>
<polygon fill="#8dd3c7" stroke="black" points="3137.95,-149.8 3134.95,-153.8 3113.95,-153.8 3110.95,-149.8 2954.05,-149.8 2954.05,-113.8 3137.95,-113.8 3137.95,-149.8"/>
<text text-anchor="middle" x="3046" y="-127.6" font-family="Times,serif" font-size="14.00">RechercherCoursPageModule</text>
</g>
<!-- RechercherCoursPage&#45;&gt;RechercherCoursPageModule -->
<g id="edge18" class="edge">
<title>RechercherCoursPage&#45;&gt;RechercherCoursPageModule</title>
<path fill="none" stroke="black" d="M3112.89,-84.91C3112.89,-84.91 3112.89,-103.79 3112.89,-103.79"/>
<polygon fill="black" stroke="black" points="3109.39,-103.79 3112.89,-113.79 3116.39,-103.79 3109.39,-103.79"/>
</g>
<!-- RechercherCoursPageRoutingModule -->
<g id="node27" class="node">
<title>RechercherCoursPageRoutingModule</title>
<polygon fill="#8dd3c7" stroke="black" points="3063.56,-84.8 3060.56,-88.8 3039.56,-88.8 3036.56,-84.8 2834.44,-84.8 2834.44,-48.8 3063.56,-48.8 3063.56,-84.8"/>
<text text-anchor="middle" x="2949" y="-62.6" font-family="Times,serif" font-size="14.00">RechercherCoursPageRoutingModule</text>
</g>
<!-- RechercherCoursPageRoutingModule&#45;&gt;RechercherCoursPageModule -->
<g id="edge19" class="edge">
<title>RechercherCoursPageRoutingModule&#45;&gt;RechercherCoursPageModule</title>
<path fill="none" stroke="black" d="M3008.78,-84.91C3008.78,-84.91 3008.78,-103.79 3008.78,-103.79"/>
<polygon fill="black" stroke="black" points="3005.28,-103.79 3008.78,-113.79 3012.28,-103.79 3005.28,-103.79"/>
</g>
<!-- RechercherProfesseurPage -->
<g id="node28" class="node">
<title>RechercherProfesseurPage</title>
<polygon fill="#ffffb3" stroke="black" points="3712.04,-84.8 3545.96,-84.8 3545.96,-48.8 3712.04,-48.8 3712.04,-84.8"/>
<text text-anchor="middle" x="3629" y="-62.6" font-family="Times,serif" font-size="14.00">RechercherProfesseurPage</text>
</g>
<!-- RechercherProfesseurPageModule -->
<g id="node29" class="node">
<title>RechercherProfesseurPageModule</title>
<polygon fill="#8dd3c7" stroke="black" points="3609.59,-149.8 3606.59,-153.8 3585.59,-153.8 3582.59,-149.8 3400.41,-149.8 3400.41,-113.8 3609.59,-113.8 3609.59,-149.8"/>
<text text-anchor="middle" x="3505" y="-127.6" font-family="Times,serif" font-size="14.00">RechercherProfesseurPageModule</text>
</g>
<!-- RechercherProfesseurPage&#45;&gt;RechercherProfesseurPageModule -->
<g id="edge20" class="edge">
<title>RechercherProfesseurPage&#45;&gt;RechercherProfesseurPageModule</title>
<path fill="none" stroke="black" d="M3577.89,-84.91C3577.89,-84.91 3577.89,-103.79 3577.89,-103.79"/>
<polygon fill="black" stroke="black" points="3574.39,-103.79 3577.89,-113.79 3581.39,-103.79 3574.39,-103.79"/>
</g>
<!-- RechercherProfesseurPageRoutingModule -->
<g id="node30" class="node">
<title>RechercherProfesseurPageRoutingModule</title>
<polygon fill="#8dd3c7" stroke="black" points="3522.21,-84.8 3519.21,-88.8 3498.21,-88.8 3495.21,-84.8 3267.79,-84.8 3267.79,-48.8 3522.21,-48.8 3522.21,-84.8"/>
<text text-anchor="middle" x="3395" y="-62.6" font-family="Times,serif" font-size="14.00">RechercherProfesseurPageRoutingModule</text>
</g>
<!-- RechercherProfesseurPageRoutingModule&#45;&gt;RechercherProfesseurPageModule -->
<g id="edge21" class="edge">
<title>RechercherProfesseurPageRoutingModule&#45;&gt;RechercherProfesseurPageModule</title>
<path fill="none" stroke="black" d="M3461.28,-84.91C3461.28,-84.91 3461.28,-103.79 3461.28,-103.79"/>
<polygon fill="black" stroke="black" points="3457.78,-103.79 3461.28,-113.79 3464.78,-103.79 3457.78,-103.79"/>
</g>
</g>
</svg>
